#!OML:ASF E:\CV Data\Top Level 1\Subject 1\Session 1\player.ASF
:FULLY-SPECIFIED
:DEGREES
1135
root 10.3391 17.1028 1.30137 190.274 -177.193 -184.492
lowerback 6.35331 8.11637 5.97443
upperback -2.34066 11.5025 2.58223
thorax -5.35143 5.52053 -1.76161
lowerneck -6.57442 -12.3081 -17.2752
upperneck 3.64973 -16.611 20.8494
head 5.496 -7.76717 7.88616
rclavicle -1.68967e-015 -2.8625e-014
rhumerus -24.0646 -36.1766 -55.1339
rradius 17.6994
rwrist 9.14251
rhand -26.167 -4.74344
rfingers 7.12502
rthumb 0.384468 -34.7228
lclavicle -1.68967e-015 -2.8625e-014
lhumerus -98.1024 45.2825 -27.8845
lradius 34.0316
lwrist 61.5535
lhand -21.3614 50.5647
lfingers 7.12502
lthumb 5.0254 80.4852
rfemur 7.84154 -5.60898 21.8553
rtibia 30.7144
rfoot 10.288 -11.4987
rtoes -18.7799
lfemur -39.0213 -13.2748 -9.36485
ltibia 32.5302
lfoot -3.02571 -29.8076
ltoes 14.8103
1136
root 10.3281 17.1136 1.28864 190.524 -176.104 -184.62
lowerback 6.42908 7.9454 5.79862
upperback -2.16192 11.2553 2.63489
thorax -5.26275 5.41072 -1.59564
lowerneck -7.01711 -12.0002 -16.9481
upperneck 3.7569 -16.1587 20.7824
head 5.48194 -7.51825 7.8604
rclavicle 7.4743e-014 1.74931e-014
rhumerus -24.2645 -35.9641 -54.3584
rradius 17.922
rwrist 8.17175
rhand -26.0191 -4.66075
rfingers 7.12502
rthumb 0.527276 -34.6398
lclavicle 7.4743e-014 1.74931e-014
lhumerus -97.9626 45.3305 -27.2746
lradius 33.7459
lwrist 60.5471
lhand -20.8661 51.0229
lfingers 7.12502
lthumb 5.50365 80.9314
rfemur 7.55158 -5.43961 21.6654
rtibia 30.7606
rfoot 9.62683 -11.4151
rtoes -18.4857
lfemur -39.036 -12.8574 -9.066
ltibia 32.5211
lfoot -3.57928 -29.0108
ltoes 12.9887
1137
root 10.3182 17.1228 1.27442 190.775 -175 -184.782
lowerback 6.51526 7.78199 5.66659
upperback -2.00156 11.0239 2.68802
thorax -5.18917 5.30598 -1.4553
lowerneck -7.4482 -11.6794 -16.6237
upperneck 3.89168 -15.6964 20.7039
head 5.47303 -7.26489 7.83276
rclavicle -2.62396e-014 1.59028e-015
rhumerus -24.4299 -35.6838 -53.6317
rradius 18.1675
rwrist 7.111
rhand -25.862 -4.53432
rfingers 7.12502
rthumb 0.67904 -34.513
lclavicle -2.62396e-014 1.59028e-015
lhumerus -97.7792 45.37 -26.6542
lradius 33.4907
lwrist 59.5579
lhand -20.3633 51.3957
lfingers 7.12502
lthumb 5.98907 81.291
rfemur 7.26241 -5.31941 21.4819
rtibia 30.809
rfoot 8.91834 -11.2866
rtoes -18.2167
lfemur -39.0602 -12.4315 -8.7368
ltibia 32.5473
lfoot -4.11634 -28.1976
ltoes 11.1561
1138
root 10.3094 17.1296 1.25846 191.026 -173.879 -184.966
lowerback 6.61437 7.62799 5.56975
upperback -1.85799 10.81 2.73758
thorax -5.13156 5.20744 -1.34074
lowerneck -7.86527 -11.35 -16.3059
upperneck 4.04854 -15.2295 20.6207
head 5.46932 -7.00979 7.8053
rclavicle 8.34896e-015 1.11319e-014
rhumerus -24.5543 -35.3523 -52.9592
rradius 18.4349
rwrist 5.98135
rhand -25.7272 -4.42379
rfingers 7.12502
rthumb 0.809243 -34.402
lclavicle 8.34896e-015 1.11319e-014
lhumerus -97.569 45.4092 -26.0427
lradius 33.2756
lwrist 58.5898
lhand -19.8486 51.7111
lfingers 7.12502
lthumb 6.48599 81.5918
rfemur 6.97066 -5.2498 21.2906
rtibia 30.8706
rfoot 8.17324 -11.1016
rtoes -17.9408
lfemur -39.081 -11.9995 -8.39028
ltibia 32.602
lfoot -4.68167 -27.3561
ltoes 9.1783
1139
root 10.3016 17.1349 1.24071 191.27 -172.748 -185.159
lowerback 6.73459 7.47923 5.4945
upperback -1.72821 10.6073 2.78287
thorax -5.09437 5.11242 -1.24617
lowerneck -8.28573 -11.0146 -16.0006
upperneck 4.23454 -14.76 20.5355
head 5.477 -6.75267 7.7788
rclavicle -4.09496e-014 0
rhumerus -24.6403 -35.0089 -52.3262
rradius 18.7148
rwrist 4.84686
rhand -25.6047 -4.30082
rfingers 7.12502
rthumb 0.92755 -34.2786
lclavicle -4.09496e-014 0
lhumerus -97.3474 45.4527 -25.4503
lradius 33.1087
lwrist 57.6409
lhand -19.4132 51.931
lfingers 7.12502
lthumb 6.90626 81.7983
rfemur 6.67818 -5.23465 21.0809
rtibia 30.9528
rfoot 7.40055 -10.8724
rtoes -17.6821
lfemur -39.0991 -11.5488 -8.05255
ltibia 32.6833
lfoot -5.21773 -26.5126
ltoes 7.22596
1140
root 10.295 17.1395 1.22128 191.508 -171.596 -185.353
lowerback 6.86558 7.34409 5.43465
upperback -1.61085 10.4251 2.82052
thorax -5.07056 5.0262 -1.17094
lowerneck -8.68436 -10.678 -15.7189
upperneck 4.43773 -14.296 20.4628
head 5.49182 -6.49891 7.76004
rclavicle -9.14409e-014 4.77083e-015
rhumerus -24.704 -34.642 -51.7266
rradius 19.019
rwrist 3.7021
rhand -25.5036 -4.19992
rfingers 7.12502
rthumb 1.02516 -34.1772
lclavicle -9.14409e-014 4.77083e-015
lhumerus -97.0924 45.5065 -24.8501
lradius 32.9944
lwrist 56.7233
lhand -19.0622 52.1008
lfingers 7.12502
lthumb 7.24508 81.9568
rfemur 6.3784 -5.25797 20.8461
rtibia 31.0582
rfoot 6.61922 -10.6086
rtoes -17.3458
lfemur -39.1095 -11.1219 -7.71169
ltibia 32.7843
lfoot -5.71271 -25.6126
ltoes 5.33129
1141
root 10.2896 17.1435 1.20024 191.737 -170.417 -185.542
lowerback 7.01149 7.22692 5.38768
upperback -1.50851 10.2694 2.84364
thorax -5.06432 4.95143 -1.12207
lowerneck -9.05407 -10.3458 -15.4533
upperneck 4.65154 -13.8454 20.3997
head 5.51095 -6.2528 7.74609
rclavicle 4.59193e-014 2.14687e-014
rhumerus -24.7641 -34.3016 -51.138
rradius 19.3327
rwrist 2.62063
rhand -25.4152 -4.09988
rfingers 7.12502
rthumb 1.11056 -34.0767
lclavicle 4.59193e-014 2.14687e-014
lhumerus -96.7797 45.5661 -24.2255
lradius 32.926
lwrist 55.8327
lhand -18.7682 52.2657
lfingers 7.12502
lthumb 7.52891 82.1117
rfemur 6.06971 -5.30517 20.5812
rtibia 31.1828
rfoot 5.84377 -10.3233
rtoes -16.9577
lfemur -39.1067 -10.6998 -7.38584
ltibia 32.9021
lfoot -6.17871 -24.6703
ltoes 3.44455
1142
root 10.2853 17.1476 1.17745 191.96 -169.201 -185.724
lowerback 7.16268 7.12932 5.35009
upperback -1.41931 10.141 2.8533
thorax -5.06928 4.88911 -1.09535
lowerneck -9.35962 -10.025 -15.231
upperneck 4.87126 -13.4208 20.3725
head 5.53317 -6.02197 7.75003
rclavicle -8.42847e-014 -3.33958e-014
rhumerus -24.8232 -33.9877 -50.5594
rradius 19.661
rwrist 1.63933
rhand -25.3319 -4.01764
rfingers 7.12502
rthumb 1.19102 -33.9941
lclavicle -8.42847e-014 -3.33958e-014
lhumerus -96.4116 45.6267 -23.5754
lradius 32.9011
lwrist 54.9723
lhand -18.5074 52.4314
lfingers 7.12502
lthumb 7.78061 82.2682
rfemur 5.74777 -5.36186 20.2875
rtibia 31.3245
rfoot 5.0861 -10.0309
rtoes -16.5472
lfemur -39.09 -10.2834 -7.06954
ltibia 33.0264
lfoot -6.57082 -23.6971
ltoes 1.71053
1143
root 10.2823 17.1514 1.15296 192.181 -167.952 -185.9
lowerback 7.31456 7.05038 5.31813
upperback -1.34003 10.0381 2.85223
thorax -5.08085 4.83865 -1.08516
lowerneck -9.64611 -9.71047 -15.0225
upperneck 5.09354 -13.0074 20.3453
head 5.55681 -5.79774 7.75508
rclavicle -3.81667e-014 -3.18055e-014
rhumerus -24.8675 -33.6624 -50.0127
rradius 20.0097
rwrist 0.705797
rhand -25.2724 -3.94854
rfingers 7.12502
rthumb 1.24845 -33.9246
lclavicle -3.81667e-014 -3.18055e-014
lhumerus -95.9731 45.686 -22.8659
lradius 32.9205
lwrist 54.1683
lhand -18.2428 52.5738
lfingers 7.12502
lthumb 8.03598 82.4011
rfemur 5.40777 -5.41879 19.9709
rtibia 31.4822
rfoot 4.32321 -9.74147
rtoes -16.049
lfemur -39.0644 -9.8674 -6.76224
ltibia 33.1534
lfoot -6.88342 -22.7105
ltoes 0.156668
